<svg xmlns="http://www.w3.org/2000/svg" xmlns:xlink="http://www.w3.org/1999/xlink" width="512" height="512" viewBox="0 0 512 512" fill="none"><g opacity="1"  transform="translate(0 0)"><mask id="bg-mask-0" fill="white"><use transform="translate(0 0)" xlink:href="#path_0"></use></mask><g mask="url(#bg-mask-0)" ><path id="路径 1" fill-rule="evenodd" style="fill:#FFFFFF" opacity="1" d="M256.4 25.8L56.4 141.3L56 371.5L255.6 486.2L455.6 370.7L456 140.5L256.4 25.8Z"></path><path id="path3384" fill-rule="evenodd" style="fill:#222222" opacity="1" d="M256.4 25.8L56.4 141.3L56 371.5L255.6 486.2L455.6 370.7L456 140.5L256.4 25.8Z"></path><g opacity="1"  transform="translate(148 188)"><path id="路径 2" fill-rule="evenodd" style="fill:#FFFFFF" opacity="1" d="M0.937865 136.879C0.875695 136.877 0.814257 136.87 0.753555 136.856C0.692852 136.843 0.634012 136.823 0.577038 136.799C0.520062 136.774 0.466008 136.743 0.414876 136.708C0.363742 136.673 0.316484 136.633 0.273096 136.588C0.22971 136.543 0.191002 136.495 0.156973 136.443C0.122943 136.391 0.0942253 136.336 0.0708187 136.279C0.0474121 136.221 0.0297519 136.162 0.0178381 136.101C0.00592424 136.039 -2.17611e-05 135.978 6.01975e-08 135.916L6.01975e-08 107.425C-2.13062e-05 107.363 0.0059251 107.301 0.0178393 107.24C0.0297534 107.179 0.0474139 107.12 0.0708207 107.062C0.0942276 107.005 0.122946 106.95 0.156975 106.897C0.191004 106.846 0.229712 106.797 0.273099 106.753C0.316486 106.708 0.363745 106.668 0.414879 106.633C0.46601 106.597 0.520064 106.567 0.577038 106.542C0.634015 106.517 0.692854 106.498 0.753555 106.485C0.814257 106.471 0.875695 106.464 0.937865 106.462L13.3075 106.462C13.6187 106.462 13.9296 106.454 14.2404 106.439C14.5511 106.423 14.8613 106.401 15.1709 106.37C15.4806 106.34 15.7893 106.302 16.097 106.256C16.4048 106.21 16.7112 106.157 17.0164 106.096C17.3215 106.036 17.625 105.968 17.9268 105.892C18.2286 105.816 18.5284 105.734 18.8261 105.643C19.1238 105.553 19.4191 105.455 19.7121 105.351C20.005 105.246 20.2952 105.134 20.5826 105.015C20.8701 104.896 21.1544 104.77 21.4357 104.636C21.717 104.503 21.9948 104.364 22.2692 104.217C22.5436 104.07 22.8142 103.917 23.081 103.757C23.3479 103.597 23.6107 103.431 23.8694 103.258C24.1281 103.085 24.3823 102.906 24.6322 102.721C24.8822 102.535 25.1273 102.344 25.3677 102.147C25.6083 101.949 25.844 101.746 26.0744 101.537C26.3048 101.328 26.5302 101.114 26.7502 100.894C26.9702 100.674 27.1847 100.448 27.3935 100.218C27.6026 99.9874 27.8057 99.7517 28.0031 99.5112C28.2006 99.2706 28.392 99.0255 28.5773 98.7756C28.7626 98.5259 28.9415 98.2717 29.1144 98.0129C29.2873 97.7541 29.4538 97.4915 29.6137 97.2245C29.7737 96.9576 29.9268 96.6869 30.0735 96.4127C30.2203 96.1381 30.36 95.8603 30.493 95.5792C30.6261 95.2979 30.7521 95.0135 30.8712 94.726C30.9904 94.4386 31.1024 94.1483 31.2071 93.8556C31.3118 93.5626 31.4094 93.2673 31.4999 92.9694C31.5901 92.6716 31.673 92.372 31.7485 92.0701C31.8243 91.7684 31.8925 91.465 31.9531 91.1599C32.0137 90.8547 32.0669 90.5482 32.1125 90.2405C32.1581 89.9328 32.1962 89.624 32.2268 89.3143C32.2572 89.0048 32.2801 88.6945 32.2955 88.3838C32.3107 88.073 32.3183 87.762 32.3183 87.451L32.3183 0.964617C32.3183 0.902423 32.3242 0.840806 32.3361 0.779766C32.348 0.718723 32.3657 0.659392 32.3891 0.601772C32.4126 0.544151 32.4413 0.489312 32.4752 0.437255C32.5095 0.385198 32.548 0.336888 32.5913 0.29233C32.6347 0.247771 32.6821 0.207788 32.7333 0.172383C32.7842 0.136978 32.8382 0.106808 32.8952 0.0818731C32.9523 0.0569383 33.0113 0.0377025 33.0719 0.024165C33.1325 0.0106276 33.1941 0.00304057 33.2562 0.00140381L61.7724 0.00140381C61.8355 0.00140381 61.8981 0.00757308 61.9602 0.0199117C62.0223 0.0322502 62.0824 0.0505211 62.1409 0.0747241C62.1995 0.0989271 62.255 0.128597 62.3075 0.163734C62.3599 0.198872 62.4086 0.238801 62.4535 0.283521C62.4983 0.328242 62.5381 0.376897 62.5734 0.429483C62.6083 0.48207 62.638 0.537579 62.6623 0.59601C62.6864 0.654442 62.7047 0.714673 62.7171 0.776704C62.7295 0.838732 62.7356 0.901371 62.7356 0.964617L62.7356 87.451C62.7343 88.2596 62.7133 89.0676 62.6725 89.8752C62.6317 90.6828 62.5711 91.4889 62.4907 92.2934C62.4104 93.0979 62.3105 93.9002 62.1909 94.6999C62.0712 95.4996 61.9321 96.2958 61.7734 97.0887C61.6147 97.8816 61.4368 98.6701 61.2393 99.4541C61.0421 100.238 60.8256 101.017 60.5902 101.791C60.3547 102.564 60.1004 103.332 59.8274 104.093C59.5545 104.854 59.263 105.608 58.9529 106.355C58.6429 107.101 58.3147 107.84 57.9684 108.571C57.6224 109.301 57.2585 110.023 56.8767 110.736C56.4952 111.449 56.0965 112.152 55.6806 112.846C55.2646 113.539 54.8317 114.222 54.3822 114.894C53.9328 115.566 53.4669 116.227 52.9851 116.876C52.5032 117.525 52.0059 118.163 51.4926 118.787C50.9796 119.412 50.4516 120.025 49.9084 120.624C49.3654 121.222 48.808 121.808 48.2362 122.38C47.6646 122.951 47.0791 123.509 46.4801 124.052C45.8809 124.595 45.2687 125.123 44.6439 125.636C44.0191 126.149 43.3819 126.647 42.7324 127.129C42.0833 127.61 41.4225 128.076 40.7503 128.526C40.0783 128.975 39.3954 129.408 38.7022 129.824C38.0089 130.24 37.3057 130.639 36.5927 131.02C35.8797 131.402 35.158 131.766 34.4273 132.112C33.6965 132.458 32.9579 132.786 32.2111 133.096C31.4641 133.406 30.7103 133.698 29.9493 133.971C29.1881 134.244 28.4209 134.498 27.6473 134.734C26.8739 134.969 26.095 135.186 25.3108 135.383C24.5266 135.58 23.7381 135.758 22.9452 135.917C22.1524 136.075 21.3561 136.215 20.5564 136.334C19.7567 136.454 18.9546 136.554 18.15 136.634C17.3454 136.714 16.5393 136.775 15.7318 136.816C14.9242 136.857 14.1161 136.878 13.3075 136.879L0.937865 136.879Z"></path><path id="路径 4" fill-rule="evenodd" style="fill:#FFFFFF" opacity="1" d="M184.175 93.1027L142.403 51.4315C142.359 51.3866 142.311 51.3466 142.26 51.3113C142.208 51.2759 142.153 51.2462 142.096 51.2219C142.038 51.1975 141.978 51.179 141.917 51.1669C141.855 51.1542 141.794 51.1481 141.731 51.1481C141.668 51.1481 141.607 51.1542 141.545 51.1669C141.484 51.179 141.424 51.1975 141.367 51.2219C141.309 51.2462 141.254 51.2759 141.203 51.3113C141.151 51.3466 141.103 51.3866 141.059 51.4315L99.3121 93.1027C98.9319 93.4576 98.6277 93.3308 98.6277 92.8239L98.6277 0.964602C98.6277 0.901358 98.6216 0.838722 98.6092 0.776691C98.5968 0.714661 98.5785 0.654431 98.5544 0.596C98.5304 0.537569 98.5007 0.48206 98.4655 0.429475C98.4302 0.376889 98.3904 0.328237 98.3456 0.283514C98.3007 0.238795 98.2521 0.198866 98.1996 0.163729C98.1471 0.128592 98.0916 0.0989225 98.0331 0.0747197C97.9745 0.050517 97.9144 0.0322463 97.8523 0.0199079C97.7902 0.00756946 97.7276 0.00140023 97.6645 0.00140023L69.1486 0.00140023C69.0864 0.00303688 69.025 0.0106237 68.9643 0.0241609C68.9036 0.037698 68.8448 0.0569337 68.7878 0.0818682C68.7308 0.106803 68.6768 0.136972 68.6256 0.172377C68.5745 0.207782 68.5272 0.247764 68.4838 0.292322C68.4405 0.336883 68.4018 0.38519 68.3677 0.437246C68.3337 0.489305 68.305 0.544141 68.2816 0.601761C68.2582 0.659381 68.2405 0.718712 68.2286 0.779753C68.2167 0.840795 68.2107 0.90241 68.2108 0.964602L68.2108 135.915C68.2107 135.977 68.2167 136.038 68.2286 136.099C68.2405 136.16 68.2582 136.219 68.2816 136.277C68.305 136.335 68.3337 136.39 68.3677 136.442C68.4018 136.494 68.4405 136.542 68.4838 136.587C68.5272 136.631 68.5745 136.671 68.6256 136.707C68.6768 136.742 68.7308 136.772 68.7878 136.797C68.8448 136.822 68.9036 136.841 68.9643 136.855C69.025 136.868 69.0864 136.876 69.1486 136.878L97.5124 136.878C97.8156 136.861 98.1081 136.795 98.3899 136.683C98.6721 136.57 98.9286 136.415 99.16 136.219L141.059 94.3954C141.103 94.3506 141.151 94.3105 141.203 94.2753C141.254 94.2398 141.309 94.2101 141.367 94.1858C141.424 94.1615 141.484 94.143 141.545 94.1308C141.607 94.1181 141.668 94.112 141.731 94.112C141.794 94.112 141.855 94.1181 141.917 94.1308C141.978 94.143 142.038 94.1615 142.096 94.1858C142.153 94.2101 142.208 94.2398 142.26 94.2753C142.311 94.3105 142.359 94.3506 142.403 94.3954L184.327 136.219C184.554 136.415 184.806 136.57 185.084 136.683C185.362 136.796 185.65 136.861 185.95 136.878L214.313 136.878C214.377 136.878 214.439 136.871 214.501 136.859C214.563 136.847 214.623 136.829 214.682 136.804C214.741 136.78 214.796 136.751 214.849 136.716C214.901 136.68 214.95 136.64 214.995 136.596C215.039 136.551 215.079 136.502 215.114 136.45C215.149 136.397 215.179 136.341 215.203 136.283C215.228 136.225 215.246 136.164 215.258 136.102C215.271 136.04 215.277 135.978 215.277 135.915L215.277 0.964602C215.277 0.901358 215.271 0.838722 215.258 0.776691C215.246 0.714661 215.228 0.654431 215.203 0.596C215.179 0.537569 215.149 0.48206 215.114 0.429475C215.079 0.376889 215.039 0.328237 214.995 0.283514C214.95 0.238795 214.901 0.198866 214.849 0.163729C214.796 0.128592 214.741 0.0989225 214.682 0.0747197C214.623 0.050517 214.563 0.0322463 214.501 0.0199079C214.439 0.00756946 214.377 0.00140023 214.313 0.00140023L185.798 0.00140023C185.733 -0.00213229 185.668 0.0010191 185.604 0.0108544C185.54 0.0206897 185.478 0.0369994 185.417 0.0597837C185.356 0.082568 185.298 0.111342 185.244 0.146105C185.189 0.180868 185.138 0.22088 185.092 0.266141C185.046 0.311404 185.004 0.36095 184.968 0.414783C184.932 0.468616 184.902 0.525587 184.877 0.585698C184.853 0.64581 184.835 0.707779 184.823 0.771609C184.812 0.835442 184.807 0.899774 184.809 0.964602L184.809 92.8239C184.809 93.3308 184.556 93.4576 184.175 93.1027Z"></path></g></g></g><defs><rect id="path_0" x="0" y="0" width="512" height="512" rx="0" ry="0"/></defs></svg>