<svg xmlns="http://www.w3.org/2000/svg" xmlns:xlink="http://www.w3.org/1999/xlink" width="512" height="512" viewBox="0 0 512 512" fill="none"><rect x="0" y="0" width="0" height="0" fill="rgba(249, 249, 249, 1)" /><g opacity="1"  transform="translate(0 0)"><mask id="bg-mask-0" fill="white"><use transform="translate(0 0)" xlink:href="#path_0"></use></mask><g mask="url(#bg-mask-0)" ><path id="路径 1" fill-rule="evenodd" style="fill:#FFFFFF" opacity="1" d="M256.4 25.8L56.4 141.3L56 371.5L255.6 486.2L455.6 370.7L456 140.5L256.4 25.8Z"></path><path id="path3384" fill-rule="evenodd" style="fill:#222222" opacity="1" d="M256.4 25.8L56.4 141.3L56 371.5L255.6 486.2L455.6 370.7L456 140.5L256.4 25.8Z"></path><g opacity="1"  transform="translate(133 191)"><g opacity="1"  transform="translate(0 0)"><mask id="bg-mask-1" fill="white"><use transform="translate(0 0)" xlink:href="#path_1"></use></mask><g mask="url(#bg-mask-1)" ><path id="路径 2" fill-rule="evenodd" style="fill:#FFFFFF" opacity="1" d="M65.7292 30.0477L20.8455 30.0477C20.3535 30.0477 19.8626 30.0235 19.3729 29.9754C18.8832 29.9271 18.3971 29.855 17.9146 29.759C17.4319 29.663 16.9552 29.5435 16.4843 29.4007C16.0135 29.2579 15.5508 29.0924 15.0962 28.9041C14.6416 28.7158 14.1973 28.5057 13.7634 28.2736C13.3294 28.0417 12.9079 27.789 12.4988 27.5157C12.0896 27.2424 11.6949 26.9496 11.3145 26.6375C10.9342 26.3252 10.57 25.9952 10.2221 25.6473C9.87419 25.2994 9.54414 24.9353 9.23198 24.5549C8.91983 24.1745 8.62707 23.7797 8.3537 23.3706C8.08034 22.9615 7.82767 22.54 7.59573 22.106C7.36378 21.6721 7.15365 21.2277 6.96535 20.7732C6.77706 20.3186 6.61149 19.8559 6.46866 19.3851C6.32582 18.9142 6.2064 18.4374 6.11041 17.9548C6.01442 17.4723 5.94231 16.9861 5.89408 16.4965C5.84585 16.0068 5.82173 15.5159 5.82173 15.0238C5.82173 14.5318 5.84585 14.0409 5.89408 13.5512C5.94231 13.0615 6.01442 12.5754 6.11041 12.0929C6.2064 11.6102 6.32581 11.1335 6.46865 10.6626C6.61149 10.1918 6.77706 9.72906 6.96535 9.27446C7.15365 8.81987 7.36378 8.3756 7.59573 7.94165C7.82767 7.5077 8.08034 7.08617 8.3537 6.67705C8.62707 6.26792 8.91983 5.87318 9.23198 5.49282C9.54414 5.11246 9.87419 4.74831 10.2221 4.40038C10.57 4.05245 10.9342 3.7224 11.3145 3.41025C11.6949 3.0981 12.0896 2.80535 12.4988 2.53198C12.9079 2.25861 13.3294 2.00595 13.7633 1.774C14.1973 1.54205 14.6416 1.33192 15.0962 1.14362C15.5508 0.955319 16.0135 0.789756 16.4843 0.646922C16.9552 0.504087 17.4319 0.384672 17.9146 0.288678C18.3971 0.192685 18.8832 0.120573 19.3729 0.0723439C19.8626 0.0241147 20.3535 0 20.8455 0L65.7292 0C66.2212 0 66.7121 0.0241147 67.2018 0.0723439C67.6915 0.120573 68.1776 0.192685 68.6602 0.288678C69.1428 0.384672 69.6195 0.504087 70.0904 0.646922C70.5612 0.789756 71.024 0.955319 71.4785 1.14362C71.9331 1.33192 72.3774 1.54205 72.8113 1.774C73.2453 2.00595 73.6668 2.25861 74.076 2.53198C74.4851 2.80535 74.8798 3.0981 75.2602 3.41025C75.6406 3.7224 76.0047 4.05245 76.3526 4.40038C76.7005 4.74831 77.0306 5.11246 77.3428 5.49282C77.6549 5.87318 77.9477 6.26792 78.221 6.67705C78.4944 7.08617 78.7471 7.5077 78.979 7.94165C79.211 8.3756 79.4212 8.81987 79.6094 9.27446C79.7977 9.72906 79.9632 10.1918 80.106 10.6626C80.2489 11.1335 80.3683 11.6102 80.4644 12.0929C80.5603 12.5754 80.6324 13.0615 80.6807 13.5512C80.7289 14.0409 80.753 14.5318 80.753 15.0238C80.753 15.5159 80.7289 16.0068 80.6807 16.4965C80.6324 16.9861 80.5603 17.4723 80.4644 17.9548C80.3683 18.4374 80.2489 18.9142 80.106 19.3851C79.9632 19.8559 79.7977 20.3186 79.6094 20.7732C79.4212 21.2277 79.211 21.6721 78.979 22.106C78.7471 22.54 78.4944 22.9615 78.221 23.3706C77.9477 23.7797 77.6549 24.1745 77.3428 24.5549C77.0306 24.9353 76.7005 25.2994 76.3526 25.6473C76.0047 25.9952 75.6406 26.3252 75.2602 26.6375C74.8798 26.9496 74.4851 27.2424 74.076 27.5157C73.6668 27.789 73.2453 28.0417 72.8113 28.2736C72.3774 28.5057 71.9331 28.7158 71.4785 28.9041C71.024 29.0924 70.5612 29.2579 70.0904 29.4007C69.6195 29.5435 69.1428 29.663 68.6602 29.759C68.1776 29.855 67.6915 29.9271 67.2018 29.9754C66.7121 30.0235 66.2212 30.0477 65.7292 30.0477Z"></path><path id="路径 3" fill-rule="evenodd" style="fill:#FFFFFF" opacity="1" d="M15.0238 131.459C14.5318 131.459 14.0409 131.434 13.5512 131.386C13.0615 131.338 12.5754 131.266 12.0929 131.17C11.6102 131.074 11.1335 130.954 10.6626 130.812C10.1918 130.669 9.72905 130.504 9.27445 130.315C8.81985 130.126 8.37559 129.917 7.94164 129.685C7.50769 129.453 7.08616 129.199 6.67703 128.926C6.26791 128.653 5.87317 128.361 5.49281 128.048C5.11245 127.736 4.74831 127.407 4.40037 127.058C4.05244 126.71 3.72239 126.346 3.41025 125.965C3.0981 125.585 2.80534 125.191 2.53197 124.781C2.25861 124.373 2.00594 123.951 1.77399 123.517C1.54204 123.083 1.33192 122.639 1.14362 122.184C0.955317 121.73 0.789755 121.267 0.646921 120.796C0.504087 120.325 0.384672 119.848 0.288678 119.365C0.192684 118.884 0.120573 118.397 0.0723438 117.907C0.0241146 117.418 0 116.927 0 116.435C0 115.943 0.0241146 115.452 0.0723438 114.962C0.120573 114.472 0.192684 113.986 0.288678 113.504C0.384672 113.022 0.504087 112.545 0.646921 112.073C0.789755 111.603 0.955317 111.14 1.14362 110.685C1.33192 110.231 1.54204 109.787 1.77399 109.353C2.00594 108.918 2.25861 108.497 2.53197 108.088C2.80534 107.679 3.0981 107.284 3.41025 106.904C3.72239 106.524 4.05244 106.159 4.40037 105.811C4.74831 105.463 5.11245 105.133 5.49281 104.821C5.87317 104.509 6.26791 104.216 6.67703 103.942C7.08616 103.669 7.50769 103.417 7.94164 103.185C8.37559 102.953 8.81985 102.743 9.27445 102.555C9.72905 102.366 10.1918 102.201 10.6626 102.058C11.1335 101.915 11.6102 101.796 12.0929 101.699C12.5754 101.603 13.0615 101.531 13.5512 101.483C14.0409 101.435 14.5318 101.411 15.0238 101.411C16.1244 101.403 17.2224 101.345 18.3175 101.235C19.4126 101.126 20.5005 100.967 21.5809 100.756C22.6613 100.547 23.7296 100.288 24.7861 99.979C25.8426 99.67 26.8824 99.3123 27.9058 98.9076C28.9292 98.5029 29.9317 98.0512 30.9133 97.5535C31.8949 97.0559 32.8515 96.5141 33.7829 95.9272C34.7143 95.3413 35.6167 94.7131 36.49 94.0436C37.3634 93.3735 38.2039 92.6647 39.0117 91.9171C39.8194 91.1695 40.5909 90.3862 41.3262 89.5672C42.0615 88.7482 42.7574 87.897 43.4139 87.0137C44.0703 86.1303 44.6847 85.2184 45.2568 84.2782C45.8289 83.338 46.3564 82.3733 46.8393 81.3842C47.3221 80.3952 47.7583 79.386 48.1478 78.3566C48.5373 77.3271 48.8784 76.282 49.1711 75.221C49.4638 74.16 49.707 73.0879 49.9005 72.0044C50.094 70.9209 50.2371 69.8308 50.3298 68.7341L50.3298 15.4933C50.3298 15.0013 50.3539 14.5104 50.4021 14.0207C50.4503 13.531 50.5225 13.0449 50.6184 12.5624C50.7145 12.0797 50.8338 11.603 50.9767 11.1321C51.1195 10.6613 51.2851 10.1986 51.4734 9.74399C51.6616 9.28938 51.8718 8.8451 52.1038 8.41114C52.3357 7.9772 52.5884 7.55567 52.8618 7.14654C53.1351 6.73741 53.4279 6.34267 53.74 5.96231C54.0522 5.58196 54.3823 5.21781 54.7302 4.86987C55.0781 4.52194 55.4422 4.19189 55.8226 3.87975C56.203 3.5676 56.5977 3.27484 57.0068 3.00147C57.416 2.7281 57.8375 2.47544 58.2715 2.24349C58.7054 2.01154 59.1497 1.80141 59.6043 1.61312C60.0588 1.42482 60.5216 1.25925 60.9924 1.11641C61.4633 0.973579 61.94 0.854166 62.4226 0.758172C62.9052 0.662178 63.3913 0.590067 63.881 0.541837C64.3707 0.493608 64.8616 0.469494 65.3536 0.469494C65.8456 0.469494 66.3365 0.493608 66.8262 0.541837C67.3159 0.590067 67.802 0.662179 68.2846 0.758173C68.7672 0.854167 69.2439 0.973579 69.7148 1.11641C70.1856 1.25925 70.6484 1.42482 71.1029 1.61312C71.5575 1.80141 72.0018 2.01154 72.4357 2.24349C72.8697 2.47544 73.2912 2.7281 73.7004 3.00147C74.1095 3.27484 74.5042 3.5676 74.8846 3.87975C75.265 4.19189 75.6291 4.52194 75.977 4.86987C76.3249 5.21781 76.655 5.58196 76.9672 5.96231C77.2793 6.34267 77.5721 6.73741 77.8454 7.14654C78.1188 7.55567 78.3715 7.9772 78.6034 8.41114C78.8354 8.8451 79.0456 9.28938 79.2338 9.74399C79.4221 10.1986 79.5876 10.6613 79.7305 11.1321C79.8733 11.603 79.9927 12.0797 80.0888 12.5624C80.1847 13.0449 80.2569 13.531 80.3051 14.0207C80.3533 14.5104 80.3774 15.0013 80.3774 15.4933L80.3774 70.7998C80.2183 72.8209 79.9653 74.8302 79.6184 76.8276C79.2715 78.8249 78.8322 80.8019 78.3005 82.7583C77.7688 84.7146 77.1471 86.6419 76.4353 88.5401C75.7234 90.4383 74.9247 92.2991 74.039 94.1225C73.1532 95.9469 72.1844 97.7254 71.1324 99.4578C70.0805 101.19 68.9499 102.871 67.741 104.498C66.532 106.126 65.2497 107.694 63.8943 109.201C62.5388 110.708 61.1159 112.149 59.6258 113.524C58.1336 114.933 56.579 116.269 54.9618 117.531C53.3446 118.794 51.6718 119.979 49.9436 121.087C48.2154 122.194 46.4393 123.216 44.6152 124.156C42.7912 125.096 40.9272 125.95 39.0232 126.715C37.1193 127.48 35.1837 128.155 33.2166 128.74C31.2494 129.324 29.2593 129.815 27.2462 130.213C25.2331 130.611 23.2057 130.914 21.1641 131.122C19.1226 131.33 17.0758 131.443 15.0238 131.459Z"></path></g></g><g opacity="1"  transform="translate(80.47140502929688 0)"><mask id="bg-mask-2" fill="white"><use transform="translate(0 0)" xlink:href="#path_2"></use></mask><g mask="url(#bg-mask-2)" ><path id="路径 5" fill-rule="evenodd" style="fill:#FFFFFF" opacity="1" d="M48.4657 129.985C46.8516 129.964 45.2732 129.716 43.7305 129.242C43.2793 129.082 42.8368 128.902 42.403 128.7C41.9692 128.497 41.546 128.275 41.1335 128.034C40.721 127.791 40.3211 127.529 39.9337 127.249C39.5464 126.967 39.1734 126.668 38.8148 126.353C38.4561 126.035 38.1134 125.702 37.7867 125.353C37.4601 125.003 37.1509 124.639 36.8592 124.26C36.5675 123.88 36.2946 123.487 36.0406 123.083C35.7867 122.677 35.5527 122.26 35.3387 121.832C35.1247 121.404 34.9317 120.967 34.7597 120.52C34.5877 120.073 34.4375 119.619 34.309 119.159C34.1806 118.698 34.0746 118.232 33.991 117.762C33.9073 117.29 33.8463 116.816 33.8081 116.339C33.77 115.862 33.7548 115.384 33.7625 114.907C33.7702 114.427 33.8008 113.95 33.8544 113.475C33.9079 112.999 33.984 112.528 34.0829 112.06C34.1817 111.592 34.3027 111.13 34.4459 110.673L67.4991 10.2131C67.5884 9.68639 67.7059 9.16598 67.8513 8.65199C67.9968 8.1379 68.1695 7.63319 68.3695 7.13785C68.5694 6.64244 68.7954 6.15923 69.0476 5.68822C69.2996 5.2172 69.5762 4.76111 69.8776 4.31996C70.1788 3.8788 70.5029 3.45511 70.85 3.04892C71.197 2.64273 71.5648 2.25638 71.9536 1.88987C72.3422 1.52336 72.7494 1.17882 73.1753 0.856241C73.6011 0.533675 74.0431 0.234943 74.5012 -0.0399466C74.9593 -0.314845 75.4307 -0.564295 75.9158 -0.788314C76.4007 -1.01234 76.8963 -1.20962 77.4026 -1.38017C77.9089 -1.55072 78.4229 -1.69355 78.9446 -1.80865C79.4662 -1.92374 79.9925 -2.01045 80.5236 -2.06876C81.0546 -2.12708 81.5873 -2.15666 82.1215 -2.15751C82.6557 -2.15836 83.1884 -2.13047 83.7197 -2.07385C84.2508 -2.01723 84.7775 -1.9322 85.2995 -1.81876C85.8215 -1.70532 86.336 -1.56414 86.8428 -1.3952C87.3496 -1.22627 87.8458 -1.03056 88.3316 -0.808081C88.8173 -0.585603 89.2896 -0.337648 89.7485 -0.0642164C90.2075 0.209206 90.6503 0.506536 91.0772 0.827747C91.5042 1.14897 91.9125 1.49221 92.3023 1.85747C92.692 2.22274 93.0611 2.60792 93.4096 3.01301C93.7581 3.4181 94.0837 3.84074 94.3864 4.28094C94.689 4.72114 94.9669 5.17635 95.2201 5.64655C95.4739 6.11676 95.7016 6.59924 95.9035 7.094C96.1046 7.58881 96.2788 8.09296 96.4262 8.60649C96.5734 9.12002 96.6927 9.64006 96.7836 10.1665C96.8746 10.6928 96.9368 11.2226 96.9703 11.7558C97.0043 12.289 97.0095 12.8224 96.9861 13.3561C96.9625 13.8898 96.9102 14.4206 96.8291 14.9487C96.748 15.4767 96.6388 15.9989 96.5014 16.5152C96.3645 17.0314 96.1999 17.5388 96.0075 18.0374C95.8155 18.5359 95.5974 19.0227 95.3529 19.4977L62.5783 119.307C62.3524 120.065 62.0682 120.8 61.7257 121.513C61.3831 122.226 60.9866 122.907 60.5359 123.557C60.0852 124.207 59.5863 124.817 59.0389 125.387C58.4914 125.957 57.9023 126.482 57.2717 126.959C56.6411 127.436 55.9768 127.86 55.279 128.232C54.581 128.603 53.8581 128.918 53.1103 129.175C52.3625 129.431 51.5991 129.628 50.8201 129.764C50.0412 129.899 49.2563 129.974 48.4657 129.985Z"></path><path id="路径 6" fill-rule="evenodd" style="fill:#FFFFFF" opacity="1" d="M48.0014 129.985C47.2257 129.977 46.4552 129.911 45.6899 129.785C44.9246 129.659 44.1734 129.475 43.4365 129.233C42.6996 128.99 41.9858 128.693 41.2949 128.34C40.6041 127.988 39.9444 127.584 39.316 127.13C38.6876 126.675 38.098 126.174 37.547 125.628C36.996 125.082 36.4902 124.497 36.0298 123.873C35.5694 123.249 35.1597 122.592 34.8007 121.905C34.4417 121.217 34.1377 120.506 33.8888 119.772L0.742778 19.5905C0.498249 19.1155 0.279968 18.6287 0.0879442 18.1302C-0.104075 17.6318 -0.268726 17.1244 -0.406007 16.608C-0.543287 16.0917 -0.6524 15.5696 -0.733346 15.0415C-0.814291 14.5135 -0.8666 13.9826 -0.890272 13.4489C-0.913943 12.9152 -0.90884 12.3818 -0.874963 11.8487C-0.841086 11.3154 -0.778631 10.7857 -0.687599 10.2593C-0.596566 9.73288 -0.477483 9.21284 -0.330352 8.69931C-0.18322 8.18578 -0.0088923 7.68163 0.192628 7.18684C0.39415 6.69208 0.621707 6.2096 0.875278 5.73939C1.12886 5.26918 1.40699 4.81397 1.70967 4.37377C2.01236 3.93357 2.33784 3.51093 2.68613 3.10584C3.03441 2.70075 3.40347 2.31557 3.79331 1.9503C4.18315 1.58504 4.5915 1.24179 5.01836 0.920575C5.44524 0.599356 5.88815 0.302035 6.34709 0.0286028C6.80604 -0.244829 7.27836 -0.492784 7.76405 -0.715261C8.24975 -0.937739 8.746 -1.13345 9.25285 -1.30238C9.7596 -1.47132 10.274 -1.6125 10.796 -1.72594C11.3181 -1.83938 11.8447 -1.92441 12.376 -1.98103C12.9072 -2.03766 13.4399 -2.06554 13.9742 -2.06469C14.5084 -2.06384 15.0411 -2.03426 15.572 -1.97594C16.103 -1.91763 16.6294 -1.83092 17.1511 -1.71583C17.6728 -1.60073 18.1867 -1.4579 18.693 -1.28735C19.1993 -1.1168 19.695 -0.919513 20.1799 -0.695494C20.6648 -0.471475 21.1364 -0.222016 21.5945 0.0528729C22.0525 0.327762 22.4945 0.626495 22.9203 0.94907C23.3462 1.27164 23.7534 1.61619 24.1421 1.9827C24.5308 2.34921 24.8987 2.73556 25.2457 3.14175C25.5926 3.54794 25.9168 3.97163 26.218 4.41279C26.5193 4.85395 26.796 5.31004 27.0481 5.78106C27.3002 6.25208 27.5262 6.73527 27.7261 7.23067C27.926 7.7261 28.0988 8.23081 28.2443 8.74481C28.3898 9.2589 28.5072 9.77921 28.5966 10.3059L62.114 109.93C62.2602 110.386 62.384 110.848 62.4855 111.317C62.5869 111.785 62.6656 112.258 62.7213 112.734C62.7771 113.209 62.8097 113.687 62.8192 114.167C62.8288 114.646 62.8152 115.124 62.7784 115.602C62.7416 116.079 62.6819 116.555 62.5992 117.027C62.5165 117.499 62.4111 117.966 62.2831 118.428C62.1552 118.89 62.0053 119.345 61.8333 119.792C61.6614 120.239 61.4682 120.677 61.2539 121.106C61.0396 121.534 60.805 121.951 60.5504 122.357C60.2956 122.763 60.0219 123.156 59.7291 123.536C59.4364 123.914 59.1261 124.279 58.7981 124.629C58.4701 124.978 58.1259 125.311 57.7657 125.627C57.4055 125.943 57.0308 126.241 56.6418 126.522C56.2527 126.801 55.8511 127.061 55.4369 127.302C55.0226 127.544 54.5976 127.764 54.1621 127.964C53.7265 128.164 53.2822 128.342 52.8294 128.499C51.2953 129.238 49.686 129.734 48.0014 129.985Z"></path><path id="路径 7" fill-rule="evenodd" style="fill:#FFFFFF" opacity="1" d="M116.986 129.985C115.372 129.964 113.794 129.716 112.251 129.242C111.798 129.085 111.354 128.907 110.919 128.707C110.483 128.507 110.058 128.287 109.644 128.045C109.229 127.804 108.827 127.544 108.439 127.264C108.049 126.984 107.675 126.686 107.314 126.37C106.954 126.054 106.61 125.721 106.282 125.372C105.955 125.022 105.644 124.657 105.352 124.278C105.059 123.899 104.785 123.506 104.53 123.1C104.276 122.694 104.041 122.277 103.826 121.849C103.612 121.42 103.419 120.981 103.247 120.535C103.075 120.087 102.926 119.632 102.797 119.171C102.669 118.709 102.564 118.242 102.481 117.77C102.399 117.297 102.339 116.822 102.302 116.345C102.265 115.867 102.252 115.388 102.261 114.909C102.271 114.43 102.304 113.952 102.359 113.477C102.415 113 102.494 112.528 102.595 112.06C102.697 111.591 102.82 111.129 102.966 110.673L136.02 10.2131C136.109 9.68636 136.226 9.16605 136.371 8.65196C136.517 8.13797 136.69 7.63326 136.89 7.13783C137.09 6.64243 137.316 6.15923 137.568 5.68821C137.82 5.2172 138.097 4.76111 138.398 4.31995C138.7 3.87878 139.024 3.45511 139.37 3.04891C139.718 2.64272 140.086 2.25636 140.474 1.88985C140.863 1.52334 141.27 1.17881 141.696 0.856233C142.122 0.533658 142.564 0.234926 143.022 -0.0399637C143.48 -0.314862 143.951 -0.564321 144.436 -0.78834C144.921 -1.01236 145.417 -1.20965 145.923 -1.3802C146.43 -1.55074 146.944 -1.69357 147.465 -1.80867C147.987 -1.92377 148.513 -2.01048 149.044 -2.06879C149.575 -2.1271 150.108 -2.15668 150.642 -2.15753C151.176 -2.15839 151.709 -2.1305 152.24 -2.07388C152.772 -2.01725 153.298 -1.93222 153.82 -1.81878C154.342 -1.70535 154.856 -1.56416 155.363 -1.39523C155.87 -1.22629 156.367 -1.03058 156.852 -0.808107C157.338 -0.585629 157.81 -0.337675 158.269 -0.0642428C158.728 0.209189 159.171 0.50651 159.598 0.827729C160.025 1.14895 160.433 1.49219 160.822 1.85746C161.212 2.22272 161.582 2.6079 161.93 3.01299C162.279 3.41808 162.604 3.84072 162.907 4.28093C163.21 4.72113 163.488 5.17633 163.741 5.64654C163.994 6.11675 164.222 6.59924 164.424 7.094C164.625 7.58878 164.799 8.09294 164.947 8.60647C165.094 9.12 165.213 9.64003 165.304 10.1665C165.395 10.6928 165.457 11.2226 165.491 11.7558C165.525 12.2889 165.53 12.8223 165.507 13.3561C165.483 13.8898 165.431 14.4207 165.35 14.9487C165.269 15.4767 165.159 15.9989 165.022 16.5152C164.884 17.0315 164.72 17.5389 164.528 18.0374C164.336 18.5359 164.118 19.0227 163.873 19.4977L131.099 119.307C130.87 120.063 130.583 120.797 130.238 121.508C129.894 122.218 129.496 122.898 129.044 123.546C128.592 124.194 128.093 124.802 127.546 125.372C126.998 125.941 126.409 126.464 125.779 126.941C125.149 127.418 124.485 127.842 123.789 128.214C123.092 128.586 122.37 128.901 121.624 129.16C120.877 129.418 120.115 129.616 119.337 129.755C118.56 129.893 117.776 129.97 116.986 129.985Z"></path><path id="路径 8" fill-rule="evenodd" style="fill:#FFFFFF" opacity="1" d="M116.522 129.985C115.72 129.985 114.924 129.921 114.133 129.793C113.341 129.665 112.565 129.476 111.804 129.224C111.043 128.973 110.307 128.663 109.595 128.293C108.884 127.924 108.206 127.5 107.563 127.023C106.919 126.546 106.317 126.02 105.757 125.446C105.198 124.873 104.687 124.258 104.226 123.602C103.764 122.947 103.358 122.259 103.006 121.539C102.655 120.818 102.363 120.074 102.131 119.307L69.2631 19.5905C69.0186 19.1155 68.8003 18.6287 68.6083 18.1302C68.4163 17.6318 68.2516 17.1244 68.1144 16.608C67.9771 16.0917 67.868 15.5696 67.787 15.0415C67.7061 14.5135 67.6538 13.9826 67.6301 13.4489C67.6064 12.9152 67.6115 12.3818 67.6454 11.8487C67.6793 11.3154 67.7417 10.7857 67.8328 10.2593C67.9238 9.73288 68.0429 9.21284 68.19 8.69931C68.3372 8.18578 68.5115 7.68163 68.713 7.18684C68.9145 6.69208 69.142 6.2096 69.3956 5.73939C69.6492 5.26918 69.9274 4.81397 70.23 4.37377C70.5327 3.93357 70.8582 3.51093 71.2065 3.10584C71.5548 2.70075 71.9239 2.31557 72.3137 1.9503C72.7035 1.58504 73.1119 1.24179 73.5387 0.920575C73.9656 0.599356 74.4085 0.302035 74.8674 0.0286028C75.3264 -0.244829 75.7987 -0.492784 76.2844 -0.715261C76.7701 -0.937739 77.2664 -1.13345 77.7732 -1.30238C78.28 -1.47132 78.7943 -1.6125 79.3164 -1.72594C79.8385 -1.83938 80.3651 -1.92441 80.8964 -1.98103C81.4275 -2.03766 81.9603 -2.06554 82.4945 -2.06469C83.0288 -2.06384 83.5614 -2.03426 84.0924 -1.97594C84.6234 -1.91763 85.1497 -1.83092 85.6714 -1.71583C86.1931 -1.60073 86.707 -1.4579 87.2133 -1.28735C87.7196 -1.1168 88.2153 -0.919513 88.7003 -0.695494C89.1852 -0.471475 89.6568 -0.222016 90.1149 0.0528729C90.5729 0.327762 91.0148 0.626495 91.4407 0.94907C91.8666 1.27164 92.2738 1.61619 92.6625 1.9827C93.051 2.34921 93.4189 2.73556 93.7661 3.14175C94.1127 3.54794 94.4367 3.97163 94.7382 4.41279C95.0397 4.85395 95.3164 5.31004 95.5683 5.78106C95.8202 6.25208 96.0461 6.73527 96.246 7.23067C96.4466 7.7261 96.6196 8.23081 96.765 8.74481C96.9105 9.2589 97.0278 9.77921 97.1169 10.3059L130.263 110.023C130.409 110.479 130.533 110.941 130.634 111.41C130.736 111.878 130.814 112.35 130.87 112.827C130.926 113.302 130.959 113.78 130.969 114.259C130.978 114.738 130.964 115.217 130.928 115.695C130.891 116.172 130.831 116.647 130.749 117.12C130.666 117.592 130.56 118.059 130.432 118.521C130.304 118.982 130.154 119.437 129.983 119.885C129.811 120.332 129.617 120.77 129.403 121.199C129.188 121.627 128.954 122.044 128.699 122.45C128.444 122.856 128.17 123.249 127.878 123.628C127.585 124.007 127.275 124.372 126.947 124.722C126.619 125.071 126.275 125.404 125.915 125.72C125.555 126.036 125.18 126.334 124.791 126.614C124.402 126.894 124 127.154 123.585 127.395C123.171 127.637 122.746 127.857 122.311 128.057C121.876 128.257 121.431 128.435 120.978 128.592C119.558 129.264 118.072 129.728 116.522 129.985Z"></path></g></g></g></g></g><defs><rect id="path_0" x="0" y="0" width="512" height="512" rx="0" ry="0"/><rect id="path_1" x="0" y="0" width="80.47137451171875" height="131.00003051757812" rx="0" ry="0"/><rect id="path_2" x="0" y="0" width="164.9873809814453" height="131.00003051757812" rx="0" ry="0"/></defs></svg>