<svg xmlns="http://www.w3.org/2000/svg" xmlns:xlink="http://www.w3.org/1999/xlink" width="512" height="512" viewBox="0 0 512 512" fill="none"><rect x="0" y="0" width="0" height="0" fill="rgba(249, 249, 249, 1)" /><g opacity="1"  transform="translate(0 0)"><mask id="bg-mask-0" fill="white"><use transform="translate(0 0)" xlink:href="#path_0"></use></mask><g mask="url(#bg-mask-0)" ><path id="路径 1" fill-rule="evenodd" style="fill:#FFFFFF" opacity="1" d="M256.4 25.8L56.4 141.3L56 371.5L255.6 486.2L455.6 370.7L456 140.5L256.4 25.8Z"></path><path id="path3384" fill-rule="evenodd" style="fill:#222222" opacity="1" d="M256.4 25.8L56.4 141.3L56 371.5L255.6 486.2L455.6 370.7L456 140.5L256.4 25.8Z"></path><path id="路径 1" fill-rule="evenodd" style="fill:#FFFFFF" opacity="1" d="M207.5 274.513L207.5 199L185.914 199L185.914 274.513C187.514 274.661 207.5 274.513 207.5 274.513ZM163.491 312.59L163.344 292.259C146.705 292.259 140.454 281.38 140.454 267.301L120 267.301C120 292.431 130.387 312.59 163.491 312.59ZM328.301 310.99L350.846 310.99L391.803 199L367.313 199L341.567 281.872L340.46 281.872L314.37 199L292.612 199L328.301 310.99ZM256.627 310.99L279.321 310.99L297.559 254.995L287.665 226.025L270.214 281.872L269.082 281.872L241.244 199L216.779 199L256.627 310.99Z"></path></g></g><defs><rect id="path_0" x="0" y="0" width="512" height="512" rx="0" ry="0"/></defs></svg>