<svg xmlns="http://www.w3.org/2000/svg" xmlns:xlink="http://www.w3.org/1999/xlink" width="512" height="512" viewBox="0 0 512 512" fill="none"><g opacity="1"  transform="translate(0 0)"><mask id="bg-mask-0" fill="white"><use transform="translate(0 0)" xlink:href="#path_0"></use></mask><g mask="url(#bg-mask-0)" ><path id="路径 1" fill-rule="evenodd" style="fill:#FFFFFF" opacity="1" d="M256.4 25.8L56.4 141.3L56 371.5L255.6 486.2L455.6 370.7L456 140.5L256.4 25.8Z"></path><path id="path3384" fill-rule="evenodd" style="fill:#222222" opacity="1" d="M256.4 25.8L56.4 141.3L56 371.5L255.6 486.2L455.6 370.7L456 140.5L256.4 25.8Z"></path><g opacity="1"  transform="translate(151 172)"><mask id="bg-mask-1" fill="white"><use transform="translate(0 0)" xlink:href="#path_1"></use></mask><g mask="url(#bg-mask-1)" ><path id="路径 2" fill-rule="evenodd" style="fill:#FFFFFF" opacity="1" d="M61.9658 166.192C59.9022 166.166 57.8841 165.849 55.9117 165.242C55.3347 165.038 54.769 164.808 54.2144 164.549C53.6598 164.29 53.1187 164.006 52.5913 163.698C52.0639 163.387 51.5526 163.052 51.0573 162.693C50.5621 162.334 50.0852 161.952 49.6266 161.548C49.168 161.142 48.7299 160.716 48.3122 160.269C47.8946 159.822 47.4993 159.357 47.1263 158.872C46.7534 158.387 46.4045 157.885 46.0798 157.367C45.755 156.848 45.4559 156.315 45.1823 155.768C44.9087 155.221 44.662 154.662 44.4421 154.091C44.2221 153.52 44.0301 152.939 43.8658 152.35C43.7016 151.762 43.5661 151.166 43.4591 150.564C43.3521 149.961 43.2742 149.355 43.2254 148.745C43.1767 148.135 43.1572 147.524 43.167 146.914C43.1769 146.301 43.2161 145.691 43.2845 145.083C43.3529 144.475 43.4503 143.872 43.5767 143.274C43.703 142.676 43.8577 142.085 44.0408 141.501L86.301 13.058C86.4152 12.3845 86.5653 11.7192 86.7514 11.062C86.9374 10.4047 87.1582 9.7594 87.4139 9.12609C87.6694 8.49268 87.9584 7.87487 88.2808 7.27267C88.603 6.67045 88.9567 6.08732 89.3421 5.52328C89.7271 4.95923 90.1416 4.41753 90.5853 3.8982C91.0289 3.37886 91.4992 2.88489 91.9962 2.41629C92.4932 1.94769 93.0138 1.50717 93.5583 1.09475C94.1027 0.68233 94.6678 0.300387 95.2535 -0.0510728C95.8392 -0.402544 96.442 -0.721478 97.0621 -1.0079C97.6821 -1.29433 98.3158 -1.54656 98.9631 -1.76461C99.6104 -1.98267 100.268 -2.16528 100.935 -2.31244C101.602 -2.4596 102.274 -2.57046 102.953 -2.64501C103.632 -2.71957 104.313 -2.75739 104.996 -2.75847C105.68 -2.75957 106.361 -2.72391 107.04 -2.65152C107.719 -2.57912 108.392 -2.4704 109.06 -2.32537C109.727 -2.18034 110.385 -1.99983 111.033 -1.78383C111.681 -1.56784 112.315 -1.31762 112.936 -1.03317C113.557 -0.748721 114.161 -0.431699 114.748 -0.0821033C115.335 0.267481 115.901 0.647632 116.447 1.05832C116.993 1.46901 117.515 1.90786 118.013 2.37487C118.511 2.84188 118.983 3.33436 119.429 3.85228C119.874 4.3702 120.291 4.91058 120.678 5.47339C121.065 6.03621 121.42 6.61822 121.744 7.21939C122.068 7.82058 122.359 8.43746 122.617 9.07003C122.875 9.70266 123.097 10.3472 123.286 11.0038C123.474 11.6604 123.626 12.3253 123.743 12.9984C123.859 13.6713 123.939 14.3487 123.981 15.0304C124.025 15.712 124.032 16.394 124.002 17.0765C123.971 17.7588 123.905 18.4375 123.801 19.1127C123.697 19.7878 123.558 20.4554 123.382 21.1155C123.207 21.7755 122.996 22.4243 122.75 23.0617C122.505 23.6991 122.226 24.3215 121.913 24.9288L80.0094 152.54C79.7206 153.509 79.3573 154.449 78.9195 155.361C78.4814 156.271 77.9744 157.143 77.3982 157.974C76.822 158.805 76.1841 159.585 75.4842 160.313C74.7841 161.042 74.0311 161.713 73.2248 162.323C72.4185 162.933 71.5692 163.476 70.677 163.951C69.7845 164.425 68.8602 164.828 67.9042 165.157C66.9481 165.484 65.9721 165.736 64.9761 165.909C63.9801 166.083 62.9767 166.178 61.9658 166.192Z"></path><path id="路径 3" fill-rule="evenodd" style="fill:#FFFFFF" opacity="1" d="M61.3722 166.192C60.3805 166.182 59.3953 166.098 58.4168 165.937C57.4383 165.775 56.478 165.54 55.5358 165.23C54.5936 164.92 53.6809 164.541 52.7976 164.089C51.9143 163.638 51.0709 163.122 50.2675 162.542C49.4641 161.96 48.7102 161.32 48.0057 160.622C47.3012 159.924 46.6546 159.175 46.0659 158.377C45.4773 157.58 44.9534 156.74 44.4945 155.862C44.0354 154.982 43.6468 154.073 43.3285 153.134L0.94968 25.0475C0.637038 24.4401 0.357955 23.8178 0.112442 23.1804C-0.133064 22.5431 -0.343579 21.8943 -0.519099 21.2342C-0.694618 20.5741 -0.834124 19.9064 -0.937618 19.2313C-1.04111 18.5562 -1.10799 17.8775 -1.13826 17.1951C-1.16852 16.5127 -1.162 15.8307 -1.11868 15.1491C-1.07537 14.4673 -0.995518 13.79 -0.879129 13.117C-0.762738 12.444 -0.610485 11.7791 -0.422371 11.1225C-0.234255 10.4659 -0.0113682 9.82134 0.246286 9.18873C0.503942 8.55616 0.794884 7.93928 1.11909 7.33809C1.4433 6.7369 1.79891 6.1549 2.1859 5.59208C2.57291 5.02926 2.98905 4.48889 3.43435 3.97096C3.87965 3.45304 4.3515 2.96057 4.84993 2.49356C5.34837 2.02655 5.87046 1.58769 6.41623 1.177C6.96202 0.766304 7.5283 0.386165 8.11508 0.0365691C8.70186 -0.313027 9.30574 -0.630049 9.92673 -0.914498C10.5477 -1.19895 11.1822 -1.44917 11.8302 -1.66516C12.4781 -1.88115 13.1358 -2.06167 13.8033 -2.2067C14.4708 -2.35173 15.1441 -2.46045 15.8233 -2.53285C16.5025 -2.60524 17.1836 -2.6409 17.8667 -2.6398C18.5497 -2.63872 19.2307 -2.6009 19.9096 -2.52634C20.5885 -2.45179 21.2615 -2.34093 21.9285 -2.19377C22.5955 -2.04661 23.2526 -1.864 23.8999 -1.64594C24.5472 -1.42789 25.181 -1.17564 25.801 -0.889225C26.421 -0.602806 27.0239 -0.28386 27.6096 0.0675993C28.1952 0.419059 28.7603 0.801003 29.3048 1.21343C29.8493 1.62586 30.37 2.06637 30.8669 2.53497C31.3639 3.00358 31.8342 3.49754 32.2778 4.01688C32.7215 4.53622 33.1359 5.07792 33.5211 5.64196C33.9063 6.20602 34.26 6.78915 34.5823 7.39137C34.9046 7.99358 35.1937 8.61138 35.4493 9.24477C35.7048 9.8782 35.9258 10.5235 36.1118 11.1807C36.2978 11.838 36.4478 12.5032 36.5621 13.1766L79.4158 140.551C79.6028 141.134 79.761 141.725 79.8908 142.324C80.0205 142.923 80.1211 143.527 80.1923 144.136C80.2636 144.744 80.3053 145.355 80.3175 145.967C80.3298 146.58 80.3123 147.191 80.2653 147.803C80.2183 148.413 80.142 149.021 80.0362 149.625C79.9304 150.228 79.7957 150.825 79.6321 151.416C79.4685 152.006 79.2768 152.588 79.057 153.16C78.8371 153.731 78.5902 154.291 78.3161 154.84C78.0421 155.387 77.7423 155.92 77.4167 156.44C77.0909 156.959 76.741 157.461 76.3667 157.946C75.9924 158.431 75.5957 158.897 75.1763 159.345C74.7569 159.791 74.3168 160.216 73.8564 160.621C73.3958 161.024 72.9168 161.406 72.4194 161.764C71.9219 162.121 71.4084 162.454 70.8788 162.762C70.3491 163.071 69.8058 163.352 69.2489 163.609C68.692 163.864 68.1239 164.092 67.545 164.292C65.5836 165.237 63.526 165.871 61.3722 166.192Z"></path><path id="路径 4" fill-rule="evenodd" style="fill:#FFFFFF" opacity="1" d="M149.573 166.192C147.509 166.166 145.491 165.849 143.519 165.242C142.939 165.042 142.372 164.814 141.815 164.558C141.258 164.302 140.715 164.021 140.185 163.712C139.655 163.403 139.141 163.071 138.644 162.714C138.147 162.355 137.668 161.974 137.207 161.57C136.746 161.166 136.306 160.741 135.887 160.294C135.468 159.847 135.072 159.38 134.697 158.896C134.323 158.41 133.973 157.908 133.647 157.39C133.322 156.87 133.022 156.337 132.747 155.789C132.473 155.241 132.226 154.681 132.006 154.11C131.787 153.537 131.596 152.956 131.432 152.366C131.268 151.775 131.133 151.178 131.027 150.575C130.922 149.97 130.845 149.363 130.798 148.752C130.751 148.141 130.734 147.53 130.746 146.917C130.758 146.305 130.8 145.693 130.871 145.085C130.943 144.476 131.043 143.872 131.173 143.274C131.303 142.674 131.461 142.083 131.648 141.5L173.908 13.0579C174.022 12.3845 174.172 11.7192 174.358 11.062C174.544 10.4048 174.765 9.75949 175.02 9.12606C175.277 8.49267 175.566 7.87488 175.888 7.27266C176.21 6.67044 176.564 6.08731 176.949 5.52326C177.335 4.95921 177.749 4.41752 178.192 3.89819C178.636 3.37885 179.107 2.88487 179.604 2.41627C180.101 1.94767 180.621 1.50716 181.166 1.09474C181.71 0.682308 182.275 0.300364 182.861 -0.0510952C183.447 -0.402567 184.049 -0.721512 184.669 -1.00793C185.289 -1.29435 185.923 -1.54659 186.571 -1.76465C187.218 -1.9827 187.875 -2.16531 188.541 -2.31248C189.208 -2.45963 189.881 -2.57049 190.56 -2.64505C191.239 -2.7196 191.92 -2.75742 192.603 -2.75851C193.286 -2.7596 193.967 -2.72395 194.646 -2.65155C195.326 -2.57916 196 -2.47044 196.667 -2.3254C197.334 -2.18037 197.991 -1.99986 198.64 -1.78387C199.288 -1.56787 199.922 -1.31764 200.544 -1.0332C201.164 -0.748756 201.768 -0.431733 202.355 -0.0821376C202.942 0.267458 203.508 0.647598 204.054 1.05829C204.6 1.46899 205.122 1.90784 205.62 2.37485C206.118 2.84186 206.59 3.33433 207.036 3.85226C207.481 4.37018 207.898 4.91055 208.285 5.47337C208.672 6.03619 209.027 6.61819 209.351 7.21938C209.675 7.82057 209.966 8.43745 210.224 9.07002C210.482 9.70263 210.704 10.3472 210.893 11.0038C211.081 11.6604 211.233 12.3252 211.35 12.9983C211.466 13.6713 211.546 14.3486 211.588 15.0304C211.632 15.712 211.639 16.394 211.608 17.0764C211.578 17.7588 211.512 18.4375 211.408 19.1126C211.304 19.7877 211.165 20.4553 210.989 21.1155C210.813 21.7756 210.603 22.4244 210.357 23.0617C210.112 23.699 209.833 24.3214 209.52 24.9287L167.616 152.54C167.324 153.507 166.957 154.444 166.516 155.354C166.076 156.262 165.567 157.131 164.989 157.959C164.412 158.788 163.773 159.565 163.073 160.294C162.373 161.022 161.62 161.69 160.814 162.301C160.009 162.91 159.161 163.452 158.27 163.928C157.379 164.403 156.457 164.806 155.502 165.138C154.548 165.468 153.573 165.721 152.578 165.899C151.584 166.074 150.583 166.173 149.573 166.192Z"></path><path id="路径 5" fill-rule="evenodd" style="fill:#FFFFFF" opacity="1" d="M148.979 166.192C147.954 166.192 146.936 166.11 145.925 165.947C144.912 165.783 143.92 165.541 142.947 165.22C141.974 164.898 141.033 164.501 140.123 164.029C139.213 163.557 138.347 163.015 137.525 162.405C136.702 161.795 135.932 161.123 135.216 160.389C134.5 159.656 133.848 158.87 133.258 158.032C132.668 157.194 132.148 156.314 131.699 155.393C131.25 154.472 130.877 153.521 130.579 152.54L88.5564 25.0475C88.2437 24.4401 87.9647 23.8178 87.7192 23.1804C87.4737 22.5431 87.2632 21.8943 87.0876 21.2342C86.9121 20.5741 86.7726 19.9064 86.6691 19.2313C86.5656 18.5562 86.4988 17.8775 86.4685 17.1951C86.4382 16.5127 86.4448 15.8307 86.488 15.1491C86.5313 14.4673 86.6112 13.79 86.7276 13.117C86.844 12.444 86.9963 11.7791 87.1844 11.1225C87.3725 10.4659 87.5954 9.82134 87.8531 9.18873C88.1107 8.55616 88.4016 7.93928 88.7258 7.33809C89.05 6.7369 89.4057 6.1549 89.7926 5.59208C90.1796 5.02926 90.5958 4.48889 91.0411 3.97096C91.4864 3.45304 91.9583 2.96057 92.4567 2.49356C92.9551 2.02655 93.4772 1.58769 94.0229 1.177C94.5687 0.766304 95.135 0.386165 95.7218 0.0365691C96.3086 -0.313027 96.9125 -0.630049 97.5335 -0.914498C98.1545 -1.19895 98.7889 -1.44917 99.437 -1.66516C100.085 -1.88115 100.743 -2.06167 101.41 -2.2067C102.078 -2.35173 102.751 -2.46045 103.43 -2.53285C104.109 -2.60524 104.79 -2.6409 105.473 -2.6398C106.156 -2.63872 106.837 -2.6009 107.516 -2.52634C108.195 -2.45179 108.868 -2.34093 109.535 -2.19377C110.202 -2.04661 110.859 -1.864 111.507 -1.64594C112.154 -1.42789 112.788 -1.17564 113.408 -0.889225C114.028 -0.602806 114.631 -0.28386 115.216 0.0675993C115.802 0.419059 116.367 0.801003 116.912 1.21343C117.456 1.62586 117.977 2.06637 118.474 2.53497C118.97 3.00358 119.441 3.49754 119.885 4.01688C120.328 4.53622 120.742 5.07792 121.128 5.64196C121.513 6.20602 121.867 6.78915 122.189 7.39137C122.511 7.99358 122.8 8.61138 123.055 9.24477C123.312 9.8782 123.533 10.5235 123.719 11.1807C123.905 11.838 124.055 12.5032 124.169 13.1766L166.548 140.67C166.734 141.252 166.893 141.844 167.023 142.443C167.152 143.041 167.253 143.646 167.324 144.255C167.395 144.862 167.437 145.474 167.45 146.086C167.462 146.699 167.444 147.31 167.398 147.921C167.35 148.532 167.274 149.139 167.169 149.744C167.063 150.347 166.928 150.944 166.764 151.535C166.6 152.125 166.409 152.707 166.189 153.279C165.969 153.85 165.722 154.41 165.449 154.958C165.174 155.506 164.874 156.039 164.549 156.559C164.223 157.077 163.872 157.58 163.498 158.065C163.124 158.549 162.727 159.016 162.309 159.463C161.889 159.91 161.449 160.335 160.989 160.74C160.528 161.143 160.049 161.524 159.551 161.883C159.054 162.24 158.541 162.572 158.01 162.881C157.481 163.19 156.938 163.471 156.38 163.727C155.824 163.983 155.256 164.211 154.677 164.411C152.861 165.271 150.961 165.864 148.979 166.192Z"></path></g></g></g></g><defs><rect id="path_0" x="0" y="0" width="512" height="512" rx="0" ry="0"/><rect id="path_1" x="0" y="0" width="210.94464111328125" height="167.4899673461914" rx="0" ry="0"/></defs></svg>