<svg xmlns="http://www.w3.org/2000/svg" xmlns:xlink="http://www.w3.org/1999/xlink" width="512" height="512" viewBox="0 0 512 512" fill="none"><rect x="0" y="0" width="0" height="0" fill="rgba(249, 249, 249, 1)" /><g opacity="1"  transform="translate(0 0)"><mask id="bg-mask-0" fill="white"><use transform="translate(0 0)" xlink:href="#path_0"></use></mask><g mask="url(#bg-mask-0)" ><path id="路径 1" fill-rule="evenodd" style="fill:#FFFFFF" opacity="1" d="M256.4 25.8L56.4 141.3L56 371.5L255.6 486.2L455.6 370.7L456 140.5L256.4 25.8Z"></path><path id="path3384" fill-rule="evenodd" style="fill:#222222" opacity="1" d="M256.4 25.8L56.4 141.3L56 371.5L255.6 486.2L455.6 370.7L456 140.5L256.4 25.8Z"></path><g opacity="1"  transform="translate(136 172)"><mask id="bg-mask-1" fill="white"><use transform="translate(0 0)" xlink:href="#path_1"></use></mask><g mask="url(#bg-mask-1)" ><g opacity="1"  transform="translate(0 0)"><g opacity="1"  transform="translate(0 0)"><path id="路径 2" fill-rule="evenodd" style="fill:#FFFFFF" opacity="1" d="M185.573 168L146.059 168L200.686 0L240.201 0L185.573 168Z"></path><path id="路径 3" fill-rule="evenodd" style="fill:#FFFFFF" opacity="1" d="M98.0586 56.5355L146.059 168L185.573 168L120.1 0L98.0586 56.5355Z"></path><path id="路径 4" fill-rule="evenodd" style="fill:#FFFFFF" opacity="1" d="M54.6276 168L94.1423 168L39.5147 0L0 0L54.6276 168Z"></path><path id="路径 5" fill-rule="evenodd" style="fill:#FFFFFF" opacity="1" d="M142.092 56.5355L94.1422 168L54.6276 168L120.1 0L142.092 56.5355Z"></path><path id="路径 6" fill-rule="evenodd" style="fill:#FFFFFF" opacity="1" d="M164.033 112.72L175.682 78.1757L197.222 132.1L185.573 168L164.033 112.72ZM153.289 88.318L141.64 53.7239L120.1 107.649L133.557 138.979L153.289 88.318Z"></path></g></g></g></g></g></g><defs><rect id="path_0" x="0" y="0" width="512" height="512" rx="0" ry="0"/><rect id="path_1" x="0" y="0" width="240.20135498046875" height="168" rx="0" ry="0"/></defs></svg>