<svg xmlns="http://www.w3.org/2000/svg" xmlns:xlink="http://www.w3.org/1999/xlink" width="512" height="512" viewBox="0 0 512 512" fill="none"><rect x="0" y="0" width="0" height="0" fill="rgba(249, 249, 249, 1)" /><g opacity="1"  transform="translate(0 0)"><mask id="bg-mask-0" fill="white"><use transform="translate(0 0)" xlink:href="#path_0"></use></mask><g mask="url(#bg-mask-0)" ><path id="路径 1" fill-rule="evenodd" style="fill:#FFFFFF" opacity="1" d="M256.4 25.8L56.4 141.3L56 371.5L255.6 486.2L455.6 370.7L456 140.5L256.4 25.8Z"></path><path id="path3384" fill-rule="evenodd" style="fill:#222222" opacity="1" d="M256.4 25.8L56.4 141.3L56 371.5L255.6 486.2L455.6 370.7L456 140.5L256.4 25.8Z"></path><g opacity="1"  transform="translate(111 145)"><path id="路径 1" fill-rule="evenodd" style="fill:#FEFFFF" opacity="0" d="M144.51 0C146.322 0 148.133 0.0444492 149.942 0.133347C151.752 0.222261 153.558 0.355512 155.362 0.533096C157.165 0.710698 158.963 0.932426 160.755 1.19828C162.547 1.46413 164.332 1.7738 166.109 2.12729C167.886 2.48077 169.653 2.87763 171.411 3.31787C173.168 3.75811 174.914 4.24122 176.648 4.76718C178.382 5.29314 180.102 5.86132 181.807 6.47171C183.513 7.08212 185.203 7.734 186.877 8.42739C188.551 9.12075 190.207 9.85478 191.845 10.6294C193.483 11.4041 195.101 12.2185 196.699 13.0726C198.297 13.9267 199.873 14.8195 201.427 15.751C202.981 16.6825 204.511 17.6516 206.018 18.6582C207.524 19.6648 209.005 20.7078 210.461 21.7871C211.916 22.8664 213.344 23.9808 214.744 25.1303C216.145 26.2798 217.517 27.4627 218.859 28.6797C220.202 29.8964 221.513 31.1453 222.795 32.4266C224.076 33.7077 225.325 35.0195 226.542 36.362C227.758 37.7047 228.942 39.0762 230.091 40.4767C231.24 41.8772 232.355 43.3051 233.434 44.7604C234.513 46.2158 235.556 47.6968 236.563 49.2034C237.57 50.7097 238.539 52.24 239.47 53.7942C240.402 55.3483 241.294 56.9243 242.149 58.5221C243.003 60.1202 243.817 61.7382 244.591 63.3761C245.366 65.014 246.101 66.6698 246.795 68.3439C247.488 70.0177 248.139 71.7078 248.749 73.4136C249.359 75.1195 249.927 76.8394 250.453 78.5732C250.979 80.3072 251.462 82.0529 251.903 83.8105C252.343 85.568 252.74 87.3353 253.095 89.1123C253.447 90.8895 253.757 92.674 254.022 94.4663C254.289 96.2586 254.511 98.0565 254.687 99.8594C254.865 101.663 254.998 103.469 255.088 105.279C255.177 107.089 255.221 108.899 255.221 110.711C255.221 112.523 255.177 114.334 255.088 116.143C254.998 117.953 254.865 119.759 254.687 121.563C254.511 123.366 254.289 125.164 254.022 126.956C253.757 128.748 253.447 130.533 253.095 132.31C252.74 134.087 252.343 135.854 251.903 137.612C251.462 139.369 250.979 141.115 250.453 142.849C249.927 144.583 249.359 146.303 248.749 148.008C248.139 149.714 247.488 151.404 246.795 153.078C246.101 154.752 245.366 156.408 244.591 158.046C243.817 159.684 243.003 161.302 242.149 162.9C241.294 164.498 240.402 166.074 239.47 167.628C238.539 169.182 237.57 170.712 236.563 172.219C235.556 173.725 234.513 175.206 233.434 176.661C232.355 178.117 231.24 179.545 230.091 180.945C228.941 182.346 227.758 183.717 226.542 185.06C225.325 186.403 224.076 187.714 222.795 188.995C221.513 190.277 220.202 191.526 218.859 192.742C217.517 193.959 216.145 195.142 214.744 196.292C213.344 197.441 211.916 198.556 210.461 199.635C209.005 200.714 207.524 201.757 206.018 202.764C204.511 203.771 202.981 204.74 201.427 205.671C199.873 206.602 198.297 207.495 196.699 208.349C195.101 209.204 193.483 210.018 191.845 210.793C190.207 211.567 188.551 212.301 186.877 212.995C185.203 213.688 183.513 214.34 181.807 214.95C180.102 215.561 178.382 216.129 176.648 216.655C174.914 217.181 173.168 217.664 171.411 218.104C169.653 218.544 167.886 218.941 166.109 219.295C164.332 219.648 162.547 219.958 160.755 220.224C158.963 220.49 157.165 220.712 155.362 220.889C153.558 221.066 151.752 221.2 149.942 221.289C148.133 221.378 146.322 221.422 144.51 221.422"></path><path  id="路径 1" style="fill:#FEFFFF; opacity:1;" d="M144.51 -3M144.51 -3Q147.301 -3 150.09 -2.86304Q152.878 -2.72606 155.656 -2.45246Q158.434 -2.17884 161.195 -1.76925Q163.956 -1.35969 166.694 -0.815073Q169.432 -0.270477 172.14 0.407773Q174.846 1.08578 177.519 1.89634Q180.191 2.70693 182.818 3.64709Q185.448 4.58799 188.025 5.65573Q190.606 6.72471 193.128 7.91748Q195.649 9.10983 198.113 10.4268Q200.575 11.7427 202.969 13.1778Q205.363 14.6128 207.685 16.1637Q210.008 17.7162 212.248 19.3775Q214.49 21.0406 216.648 22.8114Q218.808 24.5845 220.874 26.457Q222.942 28.3312 224.916 30.3053Q226.888 32.2776 228.764 34.3471Q230.64 36.4174 232.41 38.5734Q234.18 40.7294 235.844 42.9734Q237.504 45.2127 239.057 47.5366Q240.608 49.8563 242.043 52.2519Q243.476 54.6421 244.794 57.1077Q246.11 59.5686 247.303 62.0947Q248.498 64.6185 249.566 67.1946Q250.635 69.7781 251.574 72.4034Q252.513 75.0306 253.324 77.7022Q254.135 80.3744 254.813 83.0817Q255.491 85.791 256.037 88.5255Q256.582 91.2718 256.99 94.027Q257.4 96.7841 257.673 99.5671Q257.947 102.343 258.084 105.131Q258.221 107.917 258.221 110.711Q258.221 113.505 258.084 116.291Q257.947 119.079 257.673 121.857Q257.4 124.638 256.989 127.398Q256.582 130.151 256.037 132.894Q255.491 135.631 254.813 138.34Q254.135 141.048 253.324 143.72Q252.514 146.391 251.574 149.019Q250.635 151.644 249.567 154.225Q248.498 156.803 247.302 159.329Q246.109 161.855 244.794 164.315Q243.477 166.779 242.043 169.17Q240.608 171.565 239.057 173.886Q237.506 176.207 235.844 178.449Q234.18 180.692 232.41 182.849Q230.638 185.008 228.765 187.075Q226.889 189.144 224.916 191.117Q222.942 193.091 220.874 194.965Q218.809 196.838 216.647 198.611Q214.493 200.379 212.248 202.045Q210.01 203.705 207.685 205.258Q205.367 206.807 202.969 208.244Q200.573 209.681 198.113 210.995Q195.649 212.312 193.128 213.505Q190.61 214.695 188.026 215.766Q185.449 216.833 182.818 217.775Q180.193 218.714 177.519 219.526Q174.849 220.336 172.14 221.014Q169.43 221.693 166.694 222.237Q163.954 222.782 161.195 223.191Q158.428 223.602 155.655 223.875Q152.878 224.148 150.09 224.285Q147.301 224.422 144.51 224.422L144.51 218.422Q147.154 218.422 149.795 218.292Q152.436 218.162 155.068 217.903Q157.694 217.645 160.315 217.256Q162.928 216.869 165.524 216.352Q168.115 215.837 170.681 215.194Q173.248 214.551 175.777 213.784Q178.31 213.015 180.797 212.126Q183.289 211.234 185.729 210.223Q188.178 209.208 190.563 208.081Q192.951 206.951 195.285 205.704Q197.615 204.458 199.885 203.098Q202.156 201.736 204.351 200.27Q206.554 198.798 208.673 197.226Q210.8 195.648 212.841 193.973Q214.888 192.293 216.844 190.52Q218.803 188.744 220.673 186.874Q222.542 185.006 224.319 183.046Q226.093 181.088 227.772 179.042Q229.449 176.999 231.024 174.874Q232.599 172.751 234.069 170.552Q235.537 168.354 236.897 166.086Q238.254 163.821 239.503 161.485Q240.748 159.157 241.879 156.763Q243.012 154.369 244.023 151.931Q245.035 149.486 245.924 146.998Q246.815 144.509 247.583 141.978Q248.35 139.448 248.992 136.883Q249.636 134.315 250.152 131.726Q250.668 129.127 251.055 126.514Q251.444 123.903 251.702 121.268Q251.961 118.637 252.091 115.996Q252.221 113.357 252.221 110.711Q252.221 108.065 252.091 105.426Q251.961 102.785 251.701 100.152Q251.444 97.5191 251.054 94.9057Q250.668 92.2956 250.152 89.6991Q249.636 87.1073 248.992 84.5392Q248.35 81.9751 247.583 79.4442Q246.815 76.913 245.924 74.4238Q245.035 71.9364 244.024 69.4931Q243.012 67.0527 241.878 64.6574Q240.749 62.2661 239.503 59.9366Q238.254 57.6007 236.897 55.3364Q235.537 53.0674 234.069 50.8702Q232.597 48.6685 231.024 46.5475Q229.448 44.4221 227.772 42.38Q226.096 40.3375 224.319 38.3768Q222.542 36.4165 220.673 34.548Q218.803 32.678 216.844 30.9023Q214.888 29.1291 212.841 27.4492Q210.798 25.772 208.674 24.1967Q206.552 22.6232 204.351 21.1526Q202.153 19.6835 199.885 18.3242Q197.617 16.9648 195.285 15.7184Q192.951 14.4708 190.563 13.3414Q188.174 12.2116 185.729 11.199Q183.288 10.1876 180.797 9.29633Q178.308 8.4058 175.777 7.63803Q173.246 6.87021 170.682 6.22797Q168.117 5.58549 165.524 5.06965Q162.93 4.55376 160.315 4.16581Q157.699 3.77783 155.068 3.51865Q152.436 3.25949 149.795 3.12973Q147.154 3 144.51 3L144.51 -3Z"></path><g opacity="1"  transform="translate(0 0)"><g opacity="1"  transform="translate(0 0)"><path id="路径 2" fill-rule="evenodd" style="fill:#FEFFFF" opacity="0" d="M0 221.42L289.02 221.42L289.02 0L0 0L0 221.42Z"></path></g><g opacity="1"  transform="translate(24.27581787109375 7.282806396484375)"><g opacity="1"  transform="translate(0 0)"><g opacity="1"  transform="translate(0 0)"><g opacity="1"  transform="translate(0 0)"><path id="路径 3" fill-rule="evenodd" style="fill:#FEFFFF" opacity="1" d="M13.5871 194.233C20.5462 197.47 26.6555 197.632 31.9154 194.719C37.175 191.806 41.7471 186.546 45.6312 178.939C49.5153 171.333 52.8734 161.987 55.7056 150.901C58.5377 139.815 61.0058 127.718 63.1098 114.609C55.1796 118.169 47.7349 122.579 40.776 127.839C33.8169 133.099 27.6671 138.804 22.3264 144.953C16.9857 151.103 12.8993 157.253 10.0671 163.403C7.23491 169.553 6.02112 175.298 6.42573 180.639C6.83033 185.979 9.21744 190.511 13.5871 194.233ZM92.4835 107.569C90.2176 126.989 87.1022 143.011 83.1373 155.635C79.1721 168.258 74.2361 178.373 68.3291 185.979C62.4218 193.586 55.4223 199.493 47.3305 203.701C43.4464 205.805 38.9554 206.857 33.8574 206.857C28.7595 206.857 23.702 205.926 18.685 204.065C13.668 202.204 9.37929 199.412 5.81883 195.69C2.74389 192.615 0.882755 188.407 0.235402 183.066C-0.411953 177.726 0.27586 171.738 2.29884 165.102C4.32182 158.467 7.84181 151.589 12.8588 144.468C17.8758 137.347 24.5921 130.469 33.0078 123.833C41.4232 117.198 51.6191 111.21 63.5953 105.869C64.728 97.292 66.0632 85.8824 67.6008 71.6405C69.1382 57.3986 70.5947 43.602 71.9704 30.2503C73.3459 16.8986 74.1955 7.47153 74.5194 1.96904C75.1666 1.64535 76.6637 1.36214 79.0104 1.11937C81.3569 0.876615 83.9464 0.836165 86.7787 0.998002C89.6107 1.15984 92.2407 1.72626 94.6683 2.69731C97.0959 3.99201 98.7546 6.9051 99.6448 11.4366C100.535 15.9681 100.859 21.7133 100.616 28.6724C100.373 35.6315 99.8065 43.2378 98.9165 51.4916C98.0264 59.7454 97.0148 68.2419 95.8821 76.9812C94.5872 87.6625 93.4545 97.8583 92.4835 107.569ZM239.109 17.02C239.433 17.1818 239.716 17.4651 239.959 17.8697C240.202 18.2743 240.363 18.8002 240.444 19.4476C240.525 20.095 240.404 20.8232 240.08 21.6324C235.872 31.0191 230.006 46.1509 222.48 67.0281C214.955 87.9053 207.389 109.632 199.782 132.209C192.176 154.785 186.107 173.275 181.576 187.679C179.957 188.164 178.056 188.124 175.871 187.557C173.686 186.991 171.582 186.141 169.559 185.008C167.536 183.875 165.958 182.662 164.825 181.367C163.207 179.425 162.681 174.044 163.247 165.224C163.814 156.404 165.068 145.52 167.01 132.573C168.952 119.626 171.137 105.95 173.565 91.5466C170.328 99.6385 167.374 106.719 164.704 112.788C162.034 118.857 159.485 124.319 157.057 129.174C153.497 136.457 150.098 144.063 146.861 151.993C143.624 159.923 140.226 170.119 136.665 182.581C136.665 182.581 135.897 182.5 134.359 182.338C132.822 182.176 130.92 181.853 128.654 181.367C126.388 180.882 124.082 180.234 121.736 179.425C119.389 178.616 117.406 177.726 115.788 176.755C114.17 175.298 113.563 170.038 113.968 160.975C114.372 151.912 115.424 140.584 117.123 126.989C118.823 113.395 120.846 99.153 123.192 84.2639C125.539 69.3748 127.764 55.4566 129.868 42.5096C131.486 32.4757 132.862 23.8577 133.995 16.6559C135.128 9.45406 135.775 4.47752 135.937 1.72626C136.423 0.431558 137.677 -0.13487 139.7 0.0269665C141.723 0.188802 144.029 0.795697 146.618 1.84765C149.208 2.8996 151.595 4.07292 153.78 5.36764C155.965 6.66234 157.461 7.87613 158.271 9.00901C158.433 9.17086 158.635 9.57544 158.878 10.2228C159.12 10.8702 159.363 11.558 159.606 12.2862C159.849 13.0145 159.97 13.6214 159.97 14.1069C159.646 21.5515 158.716 31.2619 157.178 43.2378C155.641 55.2138 153.901 67.8372 151.959 81.108C150.179 92.9223 148.641 104.008 147.347 114.366C146.052 124.724 145.162 133.22 144.676 139.855C149.208 131.602 153.294 123.793 156.936 116.429C160.577 109.066 164.097 100.771 167.496 91.5466C170.894 82.3218 174.536 70.9931 178.42 57.5605C181.171 56.5895 183.801 56.4681 186.309 57.1964C188.818 57.9247 190.962 59.0171 192.742 60.4736C194.523 61.9302 195.656 63.3059 196.141 64.6005C197.436 68.4846 197.355 77.3858 195.898 91.3039C194.442 105.222 192.014 122.782 188.616 143.982C192.985 130.711 198.285 115.175 204.516 97.3728C210.747 79.5707 216.735 63.144 222.48 48.093C228.225 33.042 232.474 22.9271 235.225 17.7483C236.034 16.9391 236.762 16.5345 237.41 16.5345C238.057 16.5345 238.624 16.6963 239.109 17.02Z"></path></g></g></g></g></g></g></g></g><defs><rect id="path_0" x="0" y="0" width="512" height="512" rx="0" ry="0"/></defs></svg>